<svg xmlns="http://www.w3.org/2000/svg" viewBox="0 0 64 64" fill="none" aria-label="Security Smart Services">
  <!-- Outer shield -->
  <path d="M32 4 L56 12 V30 C56 44 46 54 32 60 C18 54 8 44 8 30 V12 Z"
        fill="url(#g1)" stroke="#00ff88" stroke-width="2" stroke-linejoin="round"/>
  <!-- Inner shield highlight -->
  <path d="M32 10 L50 16 V30 C50 41 42 49 32 54 C22 49 14 41 14 30 V16 Z"
        fill="#0a1a14" stroke="#00ff88" stroke-width="0.5" stroke-opacity="0.4" stroke-linejoin="round"/>
  <!-- Stylized "S" -->
  <path d="M37 22 Q37 18 32 18 Q27 18 27 22 Q27 26 32 27 Q37 28 37 32 Q37 36 32 36 Q27 36 27 32"
        stroke="#00ff88" stroke-width="3" stroke-linecap="round" fill="none"/>
  <!-- Superscript "3" indicating S³ = Security Smart Services -->
  <text x="42" y="22" font-family="ui-sans-serif, system-ui, sans-serif" font-size="11" font-weight="700" fill="#00ff88">3</text>
  <!-- Subtle scanline accent -->
  <line x1="20" y1="44" x2="44" y2="44" stroke="#00ff88" stroke-width="1" stroke-opacity="0.5" stroke-linecap="round"/>
  <line x1="24" y1="47" x2="40" y2="47" stroke="#00ff88" stroke-width="1" stroke-opacity="0.3" stroke-linecap="round"/>
  <defs>
    <linearGradient id="g1" x1="0" y1="0" x2="0" y2="64" gradientUnits="userSpaceOnUse">
      <stop offset="0" stop-color="#0d1a14"/>
      <stop offset="1" stop-color="#0a0f0d"/>
    </linearGradient>
  </defs>
</svg>
